<svg xmlns="http://www.w3.org/2000/svg" fill="none" viewBox="0 0 113 46"><path id="s" stroke="#ff5900" stroke-linecap="round" stroke-width="0" d="M83.378 43c.907-1.188 5.922-4.02 5.445-7.13-.476-3.11-9.666-7.212-8.304-11.526C81.88 20.03 90.92 13.39 90.5 9.5 90.08 5.61 81.165 2.498 78 1"/><path id="q" stroke="#ff5900" stroke-linecap="round" stroke-width="0" d="M13.17 43c-.478-1.188-3.117-4.02-2.866-7.13.25-3.11 5.087-7.212 4.37-11.526-.716-4.314-8.89-10.467-8.67-14.358C6.224 6.096 14.334 2.498 16 1"/><path id="i" stroke="#ff5900" stroke-linecap="round" stroke-width="0" d="M13.17 43c-.478-1.188-3.117-4.02-2.866-7.13.25-3.11 5.087-7.212 4.37-11.526-.716-4.314-8.89-10.467-8.67-14.358C6.224 6.096 14.334 2.498 16 1"/><path id="b" stroke="#ff5900" stroke-linecap="round" stroke-width="0" d="M13.17 43c-.478-1.188-3.117-4.02-2.866-7.13.25-3.11 5.087-7.212 4.37-11.526-.716-4.314-8.89-10.467-8.67-14.358C6.224 6.096 14.334 2.498 16 1"/><path id="r" stroke="#ff5900" stroke-linecap="round" stroke-width="0" d="M83.378 43c.907-1.188 5.922-4.02 5.445-7.13-.476-3.11-9.666-7.212-8.304-11.526C81.88 20.03 90.92 13.39 90.5 9.5 90.08 5.61 81.165 2.498 78 1"/><path id="d" stroke="#ff5900" stroke-linecap="round" stroke-width="0" d="M83.378 43c.907-1.188 5.922-4.02 5.445-7.13-.476-3.11-9.666-7.212-8.304-11.526C81.88 20.03 90.92 13.39 90.5 9.5 90.08 5.61 81.165 2.498 78 1"/><path id="y" stroke="#ff5900" stroke-linecap="round" stroke-width="0" d="M35.812 43c.812-1.188 4.303-4.5 5.188-7 3.316-9.37-8.965-7.342-7.746-11.656C34.472 20.03 42.876 14.39 42.5 10.5 42.124 6.61 33.832 2.498 31 1"/><path id="f" stroke="#ff5900" stroke-linecap="round" stroke-width="0" d="M35.812 43c.812-1.188 4.303-4.5 5.188-7 3.316-9.37-8.965-7.342-7.746-11.656C34.472 20.03 42.876 14.39 42.5 10.5 42.124 6.61 33.832 2.498 31 1"/><path id="h" stroke="#ff5900" stroke-linecap="round" stroke-width="0" d="M106.755 43c-.717-1.188-3.786-1.636-4.3-7.13C102 31 101.988 31.656 107 24c3.5-9.5-11.325-10.123-10.993-14.014C96.337 6.096 108.5 2.498 111 1"/><path id="j" stroke="#ff5900" stroke-linecap="round" stroke-width="0" d="M106.755 43c-.717-1.188-3.786-1.636-4.3-7.13C102 31 101.988 31.656 107 24c3.5-9.5-11.325-10.123-10.993-14.014C96.337 6.096 108.5 2.498 111 1"/><circle r=".5" fill="#ffa000" fill-opacity=".1" shape-rendering="crispEdges"><animateMotion dur="6s" repeatCount="indefinite"><mpath href="#r"/></animateMotion></circle><circle r=".5" fill="#ffa000" fill-opacity=".9" shape-rendering="crispEdges"><animateMotion dur="4s" repeatCount="indefinite"><mpath href="#q"/></animateMotion></circle><circle r=".5" fill="#ffa000" fill-opacity=".9" shape-rendering="crispEdges"><animateMotion dur="6s" repeatCount="indefinite"><mpath href="#i"/></animateMotion></circle><circle r=".5" fill="#ffa000"><animateMotion dur="8s" repeatCount="indefinite"><mpath href="#b"/></animateMotion></circle><circle r=".5" fill="#ffa000" fill-opacity=".5" shape-rendering="crispEdges"><animateMotion dur="5s" repeatCount="indefinite"><mpath href="#d"/></animateMotion></circle><circle r=".5" fill="#ffa000" fill-opacity=".5" shape-rendering="crispEdges"><animateMotion dur="4s" repeatCount="indefinite"><mpath href="#y"/></animateMotion></circle><circle r=".5" fill="#ffa000" fill-opacity=".5" shape-rendering="crispEdges"><animateMotion dur="7s" repeatCount="indefinite"><mpath href="#f"/></animateMotion></circle><circle r=".5" fill="#ffa000" fill-opacity=".7" shape-rendering="crispEdges"><animateMotion dur="5s" repeatCount="indefinite"><mpath href="#h"/></animateMotion></circle><circle r=".5" fill="#ffa000" fill-opacity=".7" shape-rendering="crispEdges"><animateMotion dur="4s" repeatCount="indefinite"><mpath href="#j"/></animateMotion></circle><circle r=".5" fill="#ffa000" fill-opacity=".7" shape-rendering="crispEdges"><animateMotion dur="9s" repeatCount="indefinite"><mpath href="#s"/></animateMotion></circle></svg>