<!--version="1.0" standalone="no"--><!DOCTYPE html PUBLIC "-//W3C//DTD SVG 20010904//EN" "http://www.w3.org/TR/2001/REC-SVG-20010904/DTD/svg10.dtd"><svg version="1.0" xmlns="http://www.w3.org/2000/svg" width="1493.333" height="1706.667" viewBox="0 0 1120 1280" preserveAspectRatio="xMidYMid meet" zoomAndPan="magnify" contentScriptType="text/ecmascript" contentStyleType="text/css"><g transform="translate(0.000000,1280.000000) scale(0.100000,-0.100000)" fill="#00ffff" stroke="none"><path d="M5355 12793c-270-32-523-99-772-204l-103-43v-1635l-77-16c-289-60-670-174-923-275-1173-466-2160-1332-2780-2435-846-1507-929-3354-220-4925 538-1192 1463-2144 2636-2711C3723 254 4348 83 5045 18c210-19 758-16 970 6 640 65 1196 213 1755 466 967 438 1802 1163 2377 2065 436 684 719 1467 817 2265 42 335 53 805 27 1105-52 595-185 1156-397 1670-118 286-336 696-493 929l-53 79 576 576 577 577-36 89c-128 316-317 619-504 806-197 196-461 365-790 503l-114 48-577-577-577-577-129 84c-559 364-1226 635-1886 768l-58 11v1629l-42 21c-185 95-576 205-807 229-97 9-260 11-326 3zm430-2563c535-34 1010-142 1500-340 1187-481 2134-1435 2617-2635 415-1031 445-2224 83-3275-240-699-619-1306-1140-1825C7747 1060 6206 574 4680 841c-1197 209-2287 893-3008 1886-707 973-1013 2162-866 3363 98 803 409 1576 899 2235 447 602 1048 1103 1717 1430 738 362 1556 526 2363 475z"/><path d="M5393 9456c-104-34-194-114-241-214l-27-57-3-1865c-2-1839-2-1866 18-1930 67-220 316-329 526-231 110 51 187 149 213 269 16 75 16 3658 0 3734-25 120-104 219-217 275-45 22-72 28-141 30-54 2-102-2-128-11z"/></g></svg>